<svg id="visual" viewBox="0 0 900 600" width="900" height="600" xmlns="http://www.w3.org/2000/svg" xmlns:xlink="http://www.w3.org/1999/xlink" version="1.1"><path d="M0 151L13.7 138C27.3 125 54.7 99 82 85C109.3 71 136.7 69 163.8 67C191 65 218 63 245.2 73C272.3 83 299.7 105 327 106C354.3 107 381.7 87 409 81C436.3 75 463.7 83 491 95C518.3 107 545.7 123 573 121C600.3 119 627.7 99 654.8 92C682 85 709 91 736.2 94C763.3 97 790.7 97 818 96C845.3 95 872.7 93 886.3 92L900 91L900 0L886.3 0C872.7 0 845.3 0 818 0C790.7 0 763.3 0 736.2 0C709 0 682 0 654.8 0C627.7 0 600.3 0 573 0C545.7 0 518.3 0 491 0C463.7 0 436.3 0 409 0C381.7 0 354.3 0 327 0C299.7 0 272.3 0 245.2 0C218 0 191 0 163.8 0C136.7 0 109.3 0 82 0C54.7 0 27.3 0 13.7 0L0 0Z" fill="#6773ff"></path><path d="M0 259L13.7 244C27.3 229 54.7 199 82 191C109.3 183 136.7 197 163.8 200C191 203 218 195 245.2 203C272.3 211 299.7 235 327 241C354.3 247 381.7 235 409 241C436.3 247 463.7 271 491 287C518.3 303 545.7 311 573 308C600.3 305 627.7 291 654.8 288C682 285 709 293 736.2 279C763.3 265 790.7 229 818 219C845.3 209 872.7 225 886.3 233L900 241L900 89L886.3 90C872.7 91 845.3 93 818 94C790.7 95 763.3 95 736.2 92C709 89 682 83 654.8 90C627.7 97 600.3 117 573 119C545.7 121 518.3 105 491 93C463.7 81 436.3 73 409 79C381.7 85 354.3 105 327 104C299.7 103 272.3 81 245.2 71C218 61 191 63 163.8 65C136.7 67 109.3 69 82 83C54.7 97 27.3 123 13.7 136L0 149Z" fill="#4351ff"></path><path d="M0 301L13.7 286C27.3 271 54.7 241 82 238C109.3 235 136.7 259 163.8 263C191 267 218 251 245.2 264C272.3 277 299.7 319 327 330C354.3 341 381.7 321 409 317C436.3 313 463.7 325 491 342C518.3 359 545.7 381 573 381C600.3 381 627.7 359 654.8 357C682 355 709 373 736.2 361C763.3 349 790.7 307 818 290C845.3 273 872.7 281 886.3 285L900 289L900 239L886.3 231C872.7 223 845.3 207 818 217C790.7 227 763.3 263 736.2 277C709 291 682 283 654.8 286C627.7 289 600.3 303 573 306C545.7 309 518.3 301 491 285C463.7 269 436.3 245 409 239C381.7 233 354.3 245 327 239C299.7 233 272.3 209 245.2 201C218 193 191 201 163.8 198C136.7 195 109.3 181 82 189C54.7 197 27.3 227 13.7 242L0 257Z" fill="#0027ff"></path><path d="M0 475L13.7 474C27.3 473 54.7 471 82 473C109.3 475 136.7 481 163.8 481C191 481 218 475 245.2 484C272.3 493 299.7 517 327 521C354.3 525 381.7 509 409 500C436.3 491 463.7 489 491 487C518.3 485 545.7 483 573 494C600.3 505 627.7 529 654.8 531C682 533 709 513 736.2 502C763.3 491 790.7 489 818 494C845.3 499 872.7 511 886.3 517L900 523L900 287L886.3 283C872.7 279 845.3 271 818 288C790.7 305 763.3 347 736.2 359C709 371 682 353 654.8 355C627.7 357 600.3 379 573 379C545.7 379 518.3 357 491 340C463.7 323 436.3 311 409 315C381.7 319 354.3 339 327 328C299.7 317 272.3 275 245.2 262C218 249 191 265 163.8 261C136.7 257 109.3 233 82 236C54.7 239 27.3 269 13.7 284L0 299Z" fill="#0025dd"></path><path d="M0 601L13.7 601C27.3 601 54.7 601 82 601C109.3 601 136.7 601 163.8 601C191 601 218 601 245.2 601C272.3 601 299.7 601 327 601C354.3 601 381.7 601 409 601C436.3 601 463.7 601 491 601C518.3 601 545.7 601 573 601C600.3 601 627.7 601 654.8 601C682 601 709 601 736.2 601C763.3 601 790.7 601 818 601C845.3 601 872.7 601 886.3 601L900 601L900 521L886.3 515C872.7 509 845.3 497 818 492C790.7 487 763.3 489 736.2 500C709 511 682 531 654.8 529C627.7 527 600.3 503 573 492C545.7 481 518.3 483 491 485C463.7 487 436.3 489 409 498C381.7 507 354.3 523 327 519C299.7 515 272.3 491 245.2 482C218 473 191 479 163.8 479C136.7 479 109.3 473 82 471C54.7 469 27.3 471 13.7 472L0 473Z" fill="#0022bc"></path></svg>